<svg width="300" height="300" viewBox="0 0 300 300" fill="none" xmlns="http://www.w3.org/2000/svg">
<path d="M84.5463 129C83.217 129 82.1316 129.409 81.2742 130.228C80.4169 131.047 80 132.04 80 133.199C80 134.359 80.4247 135.413 81.2742 136.231C82.1237 137.05 83.217 137.459 84.5463 137.459C85.8756 137.459 86.9532 137.05 87.787 136.231C88.6128 135.413 89.0297 134.404 89.0297 133.199C89.0297 131.994 88.6128 131.047 87.787 130.228C86.9532 129.409 85.8756 129 84.5463 129ZM84.1766 141.416C83.4294 141.416 82.7372 141.476 82.0923 141.598C81.4473 141.719 80.9596 141.818 80.6292 141.901V166.983C80.6292 168.302 80.9753 169.226 81.6596 169.742C82.344 170.265 83.4373 170.522 84.9317 170.522C85.679 170.522 86.3711 170.462 87.0161 170.341C87.6611 170.219 88.1488 170.121 88.4791 170.037V144.956C88.4791 143.637 88.133 142.72 87.4487 142.197C86.7644 141.674 85.6711 141.416 84.1766 141.416ZM99.4202 130.622C98.673 130.622 97.9808 130.675 97.3358 130.774C96.6908 130.872 96.2032 130.986 95.8728 131.107V166.983C95.8728 168.302 96.2189 169.226 96.9032 169.742C97.5875 170.265 98.6808 170.522 100.175 170.522C100.923 170.522 101.615 170.462 102.26 170.341C102.905 170.219 103.392 170.121 103.723 170.037V134.162C103.723 132.843 103.377 131.926 102.692 131.403C102.008 130.88 100.915 130.622 99.4202 130.622ZM133.785 130.622C133.046 130.622 132.346 130.668 131.701 130.766C131.056 130.872 130.568 130.978 130.238 131.1V141.962C129.451 141.636 128.562 141.37 127.563 141.151C126.564 140.931 125.51 140.817 124.386 140.817C122.27 140.817 120.296 141.12 118.471 141.719C116.646 142.318 115.057 143.243 113.712 144.478C112.359 145.721 111.289 147.29 110.503 149.185C109.716 151.088 109.323 153.362 109.323 155.999C109.323 161.078 110.786 164.845 113.712 167.309C116.638 169.764 120.587 171 125.573 171C127.815 171 129.781 170.727 131.488 170.189C133.187 169.643 134.556 169.06 135.594 168.415C136.428 167.9 137.049 167.354 137.458 166.801C137.875 166.24 138.088 165.497 138.088 164.58V134.162C138.088 132.843 137.741 131.918 137.057 131.403C136.373 130.88 135.28 130.622 133.785 130.622ZM130.238 163.738C129.703 164.057 129.05 164.337 128.279 164.58C127.508 164.815 126.588 164.936 125.51 164.936C122.978 164.936 120.972 164.231 119.501 162.806C118.03 161.389 117.291 159.138 117.291 156.06C117.291 152.778 118.062 150.421 119.595 148.981C121.129 147.54 123.056 146.82 125.385 146.82C126.336 146.82 127.233 146.942 128.059 147.177C128.893 147.419 129.616 147.722 130.238 148.079V163.738ZM165.948 143.341C163.517 141.658 160.269 140.817 156.202 140.817C154.621 140.817 153.064 140.938 151.53 141.181C149.996 141.416 148.627 141.78 147.424 142.257C146.551 142.659 145.914 143.106 145.521 143.606C145.127 144.107 144.931 144.759 144.931 145.562C144.931 146.199 145.088 146.79 145.403 147.328C145.709 147.866 146.095 148.298 146.551 148.617C147.754 148.056 149.123 147.586 150.657 147.207C152.198 146.828 153.772 146.638 155.392 146.638C157.468 146.638 159.073 147.002 160.213 147.722C161.354 148.442 161.928 149.557 161.928 151.08V152.156L153.402 152.998C150.035 153.316 147.471 154.188 145.709 155.605C143.947 157.03 143.066 159.077 143.066 161.76C143.066 164.838 144.254 167.149 146.645 168.688C149.029 170.227 152.301 171 156.454 171C158.735 171 160.764 170.795 162.55 170.394C164.335 169.999 165.806 169.461 166.97 168.779C167.717 168.339 168.339 167.839 168.842 167.278C169.338 166.717 169.589 165.959 169.589 164.997V151.141C169.589 147.616 168.37 145.016 165.948 143.341ZM161.928 164.095C161.472 164.421 160.748 164.686 159.749 164.906C158.75 165.126 157.657 165.239 156.454 165.239C154.456 165.239 153.016 164.921 152.12 164.277C151.231 163.64 150.783 162.738 150.783 161.578C150.783 160.419 151.223 159.57 152.088 159.031C152.961 158.486 154.228 158.137 155.887 157.978L161.928 157.44V164.095ZM219.072 146.426C218.45 145.13 217.609 144.054 216.547 143.22C215.485 142.378 214.234 141.772 212.779 141.393C211.324 141.014 209.79 140.825 208.17 140.825C206.054 140.825 204.214 141.105 202.656 141.666C201.099 142.227 199.722 142.924 198.519 143.766C196.151 141.81 193.084 140.825 189.308 140.825C187.271 140.825 185.305 141.097 183.393 141.636C181.482 142.174 179.909 142.848 178.658 143.644C177.785 144.205 177.14 144.796 176.731 145.41C176.314 146.032 176.11 146.798 176.11 147.722V166.983C176.11 168.302 176.464 169.226 177.172 169.742C177.88 170.265 178.957 170.522 180.412 170.522C181.199 170.522 181.907 170.462 182.528 170.341C183.15 170.219 183.653 170.121 184.023 170.037V148.26C184.605 147.942 185.328 147.624 186.201 147.298C187.075 146.979 188.026 146.82 189.065 146.82C190.559 146.82 191.786 147.184 192.738 147.897C193.69 148.617 194.169 149.776 194.169 151.376V166.975C194.169 168.294 194.515 169.219 195.192 169.734C195.876 170.257 196.969 170.515 198.464 170.515C199.211 170.515 199.903 170.454 200.548 170.333C201.193 170.212 201.681 170.113 202.011 170.03V150.474C202.011 149.913 201.948 149.352 201.823 148.791C202.53 148.192 203.348 147.715 204.285 147.351C205.221 146.995 206.18 146.813 207.179 146.813C208.674 146.813 209.877 147.177 210.789 147.889C211.702 148.609 212.158 149.769 212.158 151.368V166.968C212.158 168.286 212.504 169.211 213.181 169.727C213.865 170.25 214.958 170.507 216.453 170.507C217.2 170.507 217.892 170.447 218.537 170.325C219.182 170.204 219.67 170.106 220 170.022V151.065C220 149.269 219.685 147.715 219.064 146.419L219.072 146.426Z" fill="white"/>
</svg>
